{"title":"Sa.Som.I.Himmelen.2004.SWEDISH.DVDRip.XviD.AC3.(5.1).-Zen_Bud","uid":5714932,"size":1466740440,"categoryP":"video","categoryS":"movies","magnet":"?xt=urn:btih:48738cccd390bc972430d7effd3f9045f514651a&amp;dn=Sa.Som.I.Himmelen.2004.SWEDISH.DVDRip.XviD.AC3.%285.1%29.-Zen_Bud&amp;tr=udp%3A%2F%2Ftracker.openbittorrent.com%3A80&amp;tr=udp%3A%2F%2Fopen.demonii.com%3A1337&amp;tr=udp%3A%2F%2Ftracker.coppersurfer.tk%3A6969&amp;tr=udp%3A%2F%2Fexodus.desync.com%3A6969","seeders":11,"leechers":0,"uploader":"sweden721127","files":1,"time":1280051426,"description":"General\nComplete name                    : SÃƒÂ¥.Som.I.Himmelen.avi\nFormat                           : AVI\nFormat/Info                      : Audio Video Interleave\nFormat settings                  : rec\nFile size                        : 1.37 GiB\nDuration                         : 2h 6mn\nOverall bit rate                 : 1 542 Kbps\n\nVideo\nID                               : 0\nFormat                           : MPEG-4 Visual\nCodec ID/Hint                    : XviD\nDuration                         : 2h 6mn\nBit rate                         : 1 084 Kbps\nWidth                            : 640 pixels\nHeight                           : 336 pixels\nDisplay aspect ratio             : 1.905\nStream size                      : 983 MiB (70%)\nWriting library                  : XviD 1.1.0 Beta2 (UTC 2005-04-04)\n\nAudio\n\nDuration                         : 2h 6mn\nBit rate                         : 448 Kbps\nChannel(s)                       : 6 channels\nChannel positions                : Front: L C R, Side: L R, LFE\nSampling rate                    : 48.0 KHz\nStream size                      : 406 MiB (29%)","torrent":{"xt":"urn:btih:48738cccd390bc972430d7effd3f9045f514651a","amp;dn":"Sa.Som.I.Himmelen.2004.SWEDISH.DVDRip.XviD.AC3.%285.1%29.-Zen_Bud","amp;tr":["udp%3A%2F%2Ftracker.openbittorrent.com%3A80","udp%3A%2F%2Fopen.demonii.com%3A1337","udp%3A%2F%2Ftracker.coppersurfer.tk%3A6969","udp%3A%2F%2Fexodus.desync.com%3A6969"],"infoHash":"48738cccd390bc972430d7effd3f9045f514651a","infoHashBuffer":{"type":"Buffer","data":[72,115,140,204,211,144,188,151,36,48,215,239,253,63,144,69,245,20,101,26]},"announce":[],"urlList":[]}}